<?xml version="1.0" encoding="UTF-8" standalone="no"?>
<!-- Created with Inkscape (http://www.inkscape.org/) -->

<svg
   xmlns:dc="http://purl.org/dc/elements/1.1/"
   xmlns:cc="http://creativecommons.org/ns#"
   xmlns:rdf="http://www.w3.org/1999/02/22-rdf-syntax-ns#"
   xmlns:svg="http://www.w3.org/2000/svg"
   xmlns="http://www.w3.org/2000/svg"
   xmlns:sodipodi="http://sodipodi.sourceforge.net/DTD/sodipodi-0.dtd"
   xmlns:inkscape="http://www.inkscape.org/namespaces/inkscape"
   width="64"
   height="32"
   id="svg2"
   version="1.1"
   inkscape:version="0.47 r22583"
   sodipodi:docname="sniperriflemodel.svg"
   inkscape:export-filename="sniperriflemodel.png"
   inkscape:export-xdpi="180"
   inkscape:export-ydpi="180">
  <defs
     id="defs4" />
  <sodipodi:namedview
     id="base"
     pagecolor="#ffffff"
     bordercolor="#666666"
     borderopacity="1.0"
     inkscape:pageopacity="0.0"
     inkscape:pageshadow="2"
     inkscape:zoom="8"
     inkscape:cx="41.935943"
     inkscape:cy="9.1018365"
     inkscape:document-units="px"
     inkscape:current-layer="layer1"
     showgrid="true"
     showguides="true"
     inkscape:guide-bbox="true"
     inkscape:window-width="1233"
     inkscape:window-height="763"
     inkscape:window-x="100"
     inkscape:window-y="33"
     inkscape:window-maximized="0">
    <sodipodi:guide
       orientation="0,1"
       position="19,22"
       id="guide2816" />
    <sodipodi:guide
       orientation="1,0"
       position="19,22"
       id="guide2818" />
    <inkscape:grid
       type="xygrid"
       id="grid2820"
       empspacing="4"
       visible="true"
       enabled="true"
       snapvisiblegridlinesonly="true"
       spacingx="1px"
       spacingy="1px" />
  </sodipodi:namedview>
  <metadata
     id="metadata7">
    <rdf:RDF>
      <cc:Work
         rdf:about="">
        <dc:format>image/svg+xml</dc:format>
        <dc:type
           rdf:resource="http://purl.org/dc/dcmitype/StillImage" />
        <dc:title></dc:title>
      </cc:Work>
    </rdf:RDF>
  </metadata>
  <g
     inkscape:label="L1"
     inkscape:groupmode="layer"
     id="layer1"
     transform="translate(0,-1020.3622)">
    <path
       style="fill:#e6e6e6;fill-opacity:1;stroke:#000000;stroke-opacity:1"
       d="m 25,4 0,4 2.25,0 0,2 L 23,10 23,12 7.875,12 6,11 l -4,0 0,4 4,0 2,-1 20,0 2,2 2,1 4,0 5,3 2,1 3,1 1,2 4,0 -3,-7 3,0 2,-1 3,0 2,4 2,0 0,-10 -2,0 -13,0 -3,0 0,-3 1,0 2,1 4,0 0,-4 -4,0 -2,1 -8,0 -3,-1 -7,0 z m 10,3 4,0 0,3 -10,0 0,-2 3,0 3,-1 z m 9,10 1,3 -3,-1 0,-2 2,0 z"
       transform="translate(0,1020.3622)"
       id="path3686"
       sodipodi:nodetypes="ccccccccccccccccccccccccccccccccccccccccccccccccccccc" />
  </g>
</svg>
